<?xml version="1.0" encoding="UTF-8"?><svg version="1.1" id="Layer_1" xmlns="http://www.w3.org/2000/svg" xmlns:xlink="http://www.w3.org/1999/xlink" x="0px" y="0px" viewBox="0 0 629.151 1096.141" style="enable-background:new 0 0 629.151 1096.141;" xml:space="preserve" width="630px" height="1097px">
<g>
	<path style="fill:#F3BC63;" d="M560.051,223.652H28.575C12.794,223.652,0,210.859,0,195.077s12.794-28.575,28.575-28.575h531.475
		c15.782,0,28.575,12.794,28.575,28.575S575.832,223.652,560.051,223.652z"/>
	<path style="fill:#F3BC63;" d="M28.575,1096.141c-15.782,0-28.575-12.794-28.575-28.575V44.62
		c0-15.782,12.794-28.575,28.575-28.575S57.151,28.839,57.151,44.62v1022.945C57.151,1083.347,44.357,1096.141,28.575,1096.141z"/>
	<path style="fill:#F3BC63;" d="M600.575,1096.141c-15.782,0-28.575-12.794-28.575-28.575V44.62
		c0-15.782,12.794-28.575,28.575-28.575s28.575,12.794,28.575,28.575v1022.945C629.151,1083.347,616.357,1096.141,600.575,1096.141z
		"/>
	<path style="fill:#F3BC63;" d="M560.051,1051.343H28.575c-15.782,0-28.575-12.794-28.575-28.575s12.794-28.575,28.575-28.575
		h531.475c15.782,0,28.575,12.794,28.575,28.575S575.832,1051.343,560.051,1051.343z"/>
	<path style="fill:#F3BC63;" d="M560.051,506.534H28.575C12.794,506.534,0,493.74,0,477.959c0-15.782,12.794-28.575,28.575-28.575
		h531.475c15.782,0,28.575,12.794,28.575,28.575C588.626,493.74,575.832,506.534,560.051,506.534z"/>
	<path style="fill:#F3BC63;" d="M560.051,789.415H28.575C12.794,789.415,0,776.622,0,760.84s12.794-28.575,28.575-28.575h531.475
		c15.782,0,28.575,12.794,28.575,28.575S575.832,789.415,560.051,789.415z"/>
	<path style="fill:#F3BC63;" d="M352.037,506.851c-31.563,0-57.151-25.588-57.151-57.151V309.373
		c0-31.563,25.588-57.151,57.151-57.151s57.151,25.588,57.151,57.151V449.7C409.187,481.263,383.6,506.851,352.037,506.851z"/>
	<path style="fill:#F3BC63;" d="M483.483,506.851c-31.563,0-57.151-25.588-57.151-57.151V309.373
		c0-31.563,25.588-57.151,57.151-57.151s57.151,25.588,57.151,57.151V449.7C540.634,481.263,515.046,506.851,483.483,506.851z"/>
	<path style="fill:#F3BC63;" d="M250.436,763.335c-15.782,0-28.575-12.794-28.575-28.575V594.203
		c0-15.782,12.794-28.575,28.575-28.575c15.782,0,28.575,12.794,28.575,28.575v140.557
		C279.011,750.541,266.218,763.335,250.436,763.335z"/>
	<path style="fill:#F3BC63;" d="M319.017,763.335c-15.782,0-28.575-12.794-28.575-28.575V594.431
		c0-15.782,12.794-28.575,28.575-28.575s28.575,12.794,28.575,28.575v140.328C347.592,750.541,334.798,763.335,319.017,763.335z"/>
	<path style="fill:#F3BC63;" d="M387.598,763.335c-15.782,0-28.575-12.794-28.575-28.575V594.203
		c0-15.782,12.794-28.575,28.575-28.575s28.575,12.794,28.575,28.575v140.557C416.173,750.541,403.379,763.335,387.598,763.335z"/>
	<path style="fill:#F3BC63;" d="M456.179,763.335c-15.782,0-28.575-12.794-28.575-28.575V594.431
		c0-15.782,12.794-28.575,28.575-28.575s28.575,12.794,28.575,28.575v140.328C484.754,750.541,471.96,763.335,456.179,763.335z"/>
	<path style="fill:#F3BC63;" d="M524.759,763.335c-15.782,0-28.575-12.794-28.575-28.575V594.203
		c0-15.782,12.794-28.575,28.575-28.575c15.782,0,28.575,12.794,28.575,28.575v140.557
		C553.335,750.541,540.541,763.335,524.759,763.335z"/>
	<path style="fill:#F3BC63;" d="M113.909,763.335c-15.782,0-28.575-12.794-28.575-28.575V594.431
		c0-15.782,12.794-28.575,28.575-28.575s28.575,12.794,28.575,28.575v140.328C142.484,750.541,129.69,763.335,113.909,763.335z"/>
	<path style="fill:#F3BC63;" d="M182.49,763.335c-15.782,0-28.575-12.794-28.575-28.575V594.203
		c0-15.782,12.794-28.575,28.575-28.575s28.575,12.794,28.575,28.575v140.557C211.065,750.541,198.271,763.335,182.49,763.335z"/>
	<path style="fill:#F3BC63;" d="M250.436,197.708c-15.782,0-28.575-12.794-28.575-28.575V28.575C221.861,12.794,234.655,0,250.436,0
		c15.782,0,28.575,12.794,28.575,28.575v140.557C279.011,184.914,266.218,197.708,250.436,197.708z"/>
	<path style="fill:#F3BC63;" d="M319.017,197.708c-15.782,0-28.575-12.794-28.575-28.575V28.804
		c0-15.782,12.794-28.575,28.575-28.575s28.575,12.794,28.575,28.575v140.328C347.592,184.914,334.798,197.708,319.017,197.708z"/>
	<path style="fill:#F3BC63;" d="M387.598,197.708c-15.782,0-28.575-12.794-28.575-28.575V28.575C359.022,12.794,371.816,0,387.598,0
		s28.575,12.794,28.575,28.575v140.557C416.173,184.914,403.379,197.708,387.598,197.708z"/>
	<path style="fill:#F3BC63;" d="M456.179,197.708c-15.782,0-28.575-12.794-28.575-28.575V28.804
		c0-15.782,12.794-28.575,28.575-28.575s28.575,12.794,28.575,28.575v140.328C484.754,184.914,471.96,197.708,456.179,197.708z"/>
	<path style="fill:#F3BC63;" d="M113.909,197.708c-15.782,0-28.575-12.794-28.575-28.575V28.804
		c0-15.782,12.794-28.575,28.575-28.575s28.575,12.794,28.575,28.575v140.328C142.484,184.914,129.69,197.708,113.909,197.708z"/>
	<path style="fill:#F3BC63;" d="M182.49,197.708c-15.782,0-28.575-12.794-28.575-28.575V28.575C153.914,12.794,166.708,0,182.49,0
		s28.575,12.794,28.575,28.575v140.557C211.065,184.914,198.271,197.708,182.49,197.708z"/>
	<path style="fill:#F3BC63;" d="M525.394,1022.133c-15.782,0-28.575-12.794-28.575-28.575V877.216
		c0-15.782,12.794-28.575,28.575-28.575c15.782,0,28.575,12.794,28.575,28.575v116.342
		C553.969,1009.339,541.175,1022.133,525.394,1022.133z"/>
	<path style="fill:#F3BC63;" d="M456.813,1022.133c-15.782,0-28.575-12.794-28.575-28.575V844.04
		c0-15.782,12.794-28.575,28.575-28.575s28.575,12.794,28.575,28.575v149.518C485.388,1009.339,472.595,1022.133,456.813,1022.133z"/>
	<path style="fill:#F3BC63;" d="M388.232,1022.133c-15.782,0-28.575-12.794-28.575-28.575V844.04
		c0-15.782,12.794-28.575,28.575-28.575s28.575,12.794,28.575,28.575v149.518C416.808,1009.339,404.014,1022.133,388.232,1022.133z"/>
	<path style="fill:#F3BC63;" d="M319.651,1022.133c-15.782,0-28.575-12.794-28.575-28.575V877.216
		c0-15.782,12.794-28.575,28.575-28.575s28.575,12.794,28.575,28.575v116.342C348.227,1009.339,335.433,1022.133,319.651,1022.133z"/>
	<path style="fill:#F3BC63;" d="M251.071,1022.133c-15.782,0-28.575-12.794-28.575-28.575v-91.607
		c0-15.782,12.794-28.575,28.575-28.575s28.575,12.794,28.575,28.575v91.607C279.646,1009.339,266.852,1022.133,251.071,1022.133z"/>
	<path style="fill:#F3BC63;" d="M182.49,1022.133c-15.782,0-28.575-12.794-28.575-28.575V877.216
		c0-15.782,12.794-28.575,28.575-28.575s28.575,12.794,28.575,28.575v116.342C211.065,1009.339,198.271,1022.133,182.49,1022.133z"/>
	<path style="fill:#F3BC63;" d="M113.909,1022.133c-15.782,0-28.575-12.794-28.575-28.575V877.216
		c0-15.782,12.794-28.575,28.575-28.575s28.575,12.794,28.575,28.575v116.342C142.484,1009.339,129.69,1022.133,113.909,1022.133z"/>
	<path style="fill:#F3BC63;" d="M117.719,478.275c-15.782,0-28.575-12.794-28.575-28.575V339.209
		c0-15.782,12.794-28.575,28.575-28.575s28.575,12.794,28.575,28.575V449.7C146.294,465.481,133.5,478.275,117.719,478.275z"/>
	<path style="fill:#F3BC63;" d="M186.3,478.275c-15.782,0-28.575-12.794-28.575-28.575V309.373
		c0-15.782,12.794-28.575,28.575-28.575s28.575,12.794,28.575,28.575V449.7C214.875,465.481,202.081,478.275,186.3,478.275z"/>
	<path style="fill:#F3BC63;" d="M254.881,478.275c-15.782,0-28.575-12.794-28.575-28.575V309.373
		c0-15.782,12.794-28.575,28.575-28.575s28.575,12.794,28.575,28.575V449.7C283.456,465.481,270.662,478.275,254.881,478.275z"/>
</g>
</svg>