<?xml version="1.0" encoding="UTF-8"?>
<svg xmlns="http://www.w3.org/2000/svg" xmlns:xlink="http://www.w3.org/1999/xlink" viewBox="0 0 64 64" width="64px" height="64px">
<g id="surface15806098">
<path style=" stroke:none;fill-rule:nonzero;fill:rgb(100%,62.7451%,17.254902%);fill-opacity:1;" d="M 52 40.5 C 51.148438 40.5 50.5 41.148438 50.5 42 L 50.5 50.5 L 13.5 50.5 L 13.5 42 C 13.5 41.148438 12.851562 40.5 12 40.5 C 11.148438 40.5 10.5 41.148438 10.5 42 L 10.5 52 C 10.5 52.851562 11.148438 53.5 12 53.5 L 52 53.5 C 52.851562 53.5 53.5 52.851562 53.5 52 L 53.5 42 C 53.5 41.148438 52.851562 40.5 52 40.5 Z M 33.050781 10.949219 C 32.449219 10.351562 31.5 10.351562 30.949219 10.949219 L 23.449219 18.449219 C 22.851562 19.050781 22.851562 20 23.449219 20.550781 C 24.050781 21.148438 25 21.148438 25.550781 20.550781 L 30.5 15.601562 L 30.5 37 C 30.5 37.851562 31.148438 38.5 32 38.5 C 32.851562 38.5 33.5 37.851562 33.5 37 L 33.5 15.601562 L 38.449219 20.550781 C 38.75 20.851562 39.148438 21 39.5 21 C 39.851562 21 40.25 20.851562 40.550781 20.550781 C 41.148438 19.949219 41.148438 19 40.550781 18.449219 Z M 33.050781 10.949219 "/>
</g>
</svg>
